<svg version="1.1" id="Layer_1" xmlns="http://www.w3.org/2000/svg" xmlns:xlink="http://www.w3.org/1999/xlink" x="0px" y="0px"
	 width="100%" viewBox="0 0 1024 1024" enable-background="new 0 0 1024 1024" xml:space="preserve">
<path fill="#000000" opacity="1.000000" stroke="none" 
	d="
M368.051270,477.000000 
	C368.047943,449.426331 368.047943,422.352692 368.047943,395.756317 
	C370.735443,394.504547 372.037842,395.498260 373.329132,396.110748 
	C388.531067,403.321136 403.692749,410.616638 418.915924,417.781708 
	C421.765350,419.122864 423.129547,420.831787 423.353973,424.182037 
	C424.751709,445.048126 448.081146,458.611450 466.841736,449.254944 
	C471.746735,446.808655 475.522705,446.814270 480.289551,449.313263 
	C490.464111,454.647247 501.016144,459.256531 511.278137,464.431274 
	C514.433655,466.022400 516.959717,465.974030 520.131897,464.471497 
	C566.802185,442.364685 613.528076,420.374878 660.249451,398.375977 
	C663.537109,396.827972 666.893311,395.425751 670.053223,394.028381 
	C672.396423,396.029663 671.897949,398.326630 671.899475,400.403290 
	C671.932922,445.901550 671.874878,491.399994 672.012024,536.897888 
	C672.024048,540.891479 670.072815,542.395752 666.938171,543.802063 
	C628.183044,561.188599 589.466553,578.661316 550.728333,596.085571 
	C540.399414,600.731445 530.005615,605.233704 519.697876,609.925720 
	C517.218506,611.054199 515.116211,611.065918 512.607300,609.893860 
	C466.120026,588.176086 419.612122,566.502319 373.047363,544.951416 
	C369.356628,543.243286 367.909332,541.131470 367.952271,536.997742 
	C368.158386,517.166931 368.050751,497.332886 368.051270,477.000000 
M585.516724,484.482025 
	C585.454468,503.971558 585.292297,523.461670 585.414978,542.950073 
	C585.439331,546.806885 584.375671,548.884155 580.687500,550.506226 
	C566.971130,556.538757 553.410828,562.928406 539.831604,569.269104 
	C534.620483,571.702393 534.182068,573.383911 536.798889,579.059265 
	C538.040527,579.383911 539.060852,578.746887 540.108643,578.268188 
	C574.944397,562.351868 609.747314,546.363159 644.649414,530.593811 
	C649.255859,528.512512 651.029419,525.833923 650.926208,520.721924 
	C650.607117,504.921783 650.795776,489.111298 650.792419,473.304840 
	C650.789673,460.143616 650.825806,446.982330 650.782104,433.821228 
	C650.760010,427.180237 650.091675,426.792419 643.887390,429.599579 
	C640.703552,431.040100 637.572083,432.595795 634.407288,434.078888 
	C624.908875,438.529846 615.394348,442.946655 605.918335,447.444763 
	C604.686218,448.029602 602.768372,448.231628 603.108765,450.363556 
	C603.381592,452.072083 604.728943,452.831696 606.179016,453.330200 
	C608.224365,454.033386 610.299500,454.657318 612.381958,455.244080 
	C620.550781,457.545807 628.705505,459.903229 636.911987,462.063049 
	C640.229187,462.936005 641.660156,464.337128 641.819702,468.187500 
	C642.523560,485.174622 640.551147,502.121796 641.375488,519.090088 
	C641.521484,522.094421 640.163269,523.573486 637.577942,524.727234 
	C625.261169,530.223816 613.009216,535.865295 600.717468,541.418213 
	C599.093567,542.151794 597.527527,543.301331 594.907288,542.559998 
	C594.034729,521.811218 595.350342,500.806030 594.116638,479.446686 
	C590.087097,480.279114 587.656494,481.493988 585.516724,484.482025 
M480.731476,571.678528 
	C485.327118,573.789001 489.922729,575.899536 494.624237,578.058655 
	C496.755463,570.258850 496.300873,569.245300 490.114563,566.378784 
	C480.149536,561.761475 470.248444,556.999207 460.193878,552.586304 
	C456.792480,551.093445 455.550262,549.142212 455.585358,545.421631 
	C455.756439,527.276184 455.661926,509.128204 455.651123,490.981110 
	C455.647125,484.298248 453.958435,482.647186 446.055176,482.272125 
	C446.055176,503.123138 446.055176,523.948486 446.055176,545.198547 
	C444.421997,544.836243 443.579437,544.797302 442.869873,544.470093 
	C429.118591,538.128418 415.402313,531.710327 401.626709,525.422119 
	C398.992584,524.219727 398.626404,522.258606 398.641174,519.762756 
	C398.697418,510.273315 398.673645,500.783264 398.642883,491.293579 
	C398.623505,485.312134 396.536377,483.395569 390.156036,483.422028 
	C388.950348,485.391083 389.334625,487.606873 389.326202,489.732697 
	C389.283966,500.387695 389.568298,511.052063 389.195587,521.694214 
	C389.014740,526.857849 390.544586,529.604919 395.462555,531.854187 
	C423.761627,544.796997 451.871582,558.153442 480.731476,571.678528 
M516.464966,500.003876 
	C516.427551,515.968872 516.311157,531.934387 516.422241,547.898315 
	C516.443359,550.938416 516.426270,554.622253 520.449951,555.602478 
	C523.880371,556.438110 527.293762,555.821899 529.393616,552.734985 
	C531.529663,549.595032 533.749939,546.228943 533.787170,542.285645 
	C533.956909,524.334717 533.935913,506.381989 533.984558,488.429901 
	C533.992249,485.594574 532.621216,483.695496 530.004517,482.718475 
	C527.400208,481.746124 525.360596,482.597015 523.153381,484.272461 
	C518.142212,488.076355 516.454651,493.138214 516.464966,500.003876 
M569.650330,512.248108 
	C569.257080,507.651001 570.644043,502.776489 567.900818,498.202301 
	C564.544861,499.746826 560.075500,499.753357 559.631104,503.470734 
	C558.901917,509.571350 559.433655,515.822693 559.433655,522.138367 
	C567.984497,520.378540 569.380615,519.072632 569.650330,512.248108 
M617.456360,477.314728 
	C615.911926,478.177368 613.516113,478.370026 613.386841,480.545898 
	C613.000366,487.051361 612.703979,493.583405 613.375549,500.238831 
	C622.196777,497.902130 622.685974,497.289886 622.695862,489.316528 
	C622.699768,486.159515 622.645447,483.001709 622.699829,479.845703 
	C622.761902,476.240143 621.277161,475.302185 617.456360,477.314728 
M482.387878,504.649872 
	C480.185394,502.155365 477.308807,501.216034 474.179565,500.690002 
	C473.796814,501.444794 473.405731,501.866852 473.390289,502.302185 
	C473.278137,505.457886 473.200226,508.616150 473.190094,511.773834 
	C473.167847,518.702881 474.845764,520.353699 482.487305,520.804565 
	C483.100372,515.688660 482.879761,510.559540 482.387878,504.649872 
M425.654907,494.392365 
	C425.675690,491.230225 425.721771,488.067963 425.712036,484.905945 
	C425.690918,478.024353 424.306580,476.601562 416.599976,475.912903 
	C415.515259,480.777924 415.865356,485.758606 416.252899,490.651978 
	C416.496674,493.729553 421.935547,496.075928 425.654907,494.392365 
z"/>
<path fill="#000000" opacity="1.000000" stroke="none" 
	d="
M561.729980,376.223999 
	C571.884216,382.053253 582.076477,386.884186 592.864502,390.477264 
	C598.268738,392.277222 603.627625,392.626556 609.073608,391.167236 
	C613.526367,389.974091 617.858887,389.721893 622.341370,391.175995 
	C626.030396,392.372681 629.967468,391.973816 633.768677,391.841675 
	C639.651001,391.637238 644.573547,395.758392 651.125061,393.960205 
	C649.945129,397.663025 647.726013,398.260284 645.900330,399.127502 
	C612.207092,415.132416 578.493896,431.095245 544.778015,447.052368 
	C536.198853,451.112701 527.585999,455.101776 519.011292,459.171234 
	C516.970825,460.139618 515.026367,460.703644 512.821167,459.620361 
	C501.612183,454.113831 490.378174,448.658325 479.160065,443.170319 
	C478.721588,442.955841 478.356140,442.592041 478.228271,442.497864 
	C477.665985,440.144684 479.214325,439.041992 480.060791,437.706573 
	C489.821106,422.308594 484.915527,402.476074 469.115143,393.629456 
	C453.315735,384.783417 434.155701,391.086609 426.170929,407.757080 
	C423.101654,414.165131 423.114410,414.138458 416.614838,411.034180 
	C402.487427,404.286743 388.343079,397.574799 374.214539,390.829773 
	C373.044556,390.271240 371.609985,390.096527 370.675751,388.317139 
	C375.872009,383.851471 383.007904,382.455658 389.208679,377.513550 
	C379.762024,368.743134 370.556244,360.196350 361.350494,351.649567 
	C363.731873,347.503967 366.657776,346.584991 368.685608,344.750275 
	C370.719330,342.910217 371.954712,345.265045 373.142426,346.434296 
	C380.978241,354.148621 388.837189,361.843597 396.487457,369.739716 
	C398.863861,372.192505 400.810059,372.525452 403.859070,370.947876 
	C414.064606,365.667480 424.368225,360.567719 434.747528,355.637177 
	C437.989380,354.097168 439.120392,352.042389 438.709747,348.580658 
	C437.280029,336.527496 435.993042,324.457397 434.650757,312.393890 
	C434.171082,308.082947 431.334564,308.508820 428.382568,309.333252 
	C415.722809,312.869019 403.079346,316.463318 390.412811,319.974487 
	C385.811005,321.250092 381.161407,322.353302 376.581482,323.522919 
	C374.825714,320.576111 374.652130,317.734406 373.915741,315.035706 
	C375.534027,312.601929 378.246338,312.537231 380.528259,311.872528 
	C395.866028,307.404724 411.219666,302.986084 426.625671,298.761169 
	C430.991821,297.563843 433.294434,295.934418 431.935547,290.792450 
	C430.886047,286.821289 431.083527,282.534912 430.503448,278.420166 
	C430.132660,275.789764 431.081268,274.804688 433.646576,274.619537 
	C437.713379,274.326050 441.459381,272.832153 444.767670,270.517517 
	C447.204468,268.812622 448.565735,269.516937 449.992462,271.770966 
	C452.931244,276.413818 456.010773,280.968628 459.087524,285.522430 
	C459.895996,286.719055 460.605988,288.501617 462.431000,288.042358 
	C469.418152,286.284149 476.489594,284.733582 483.288727,281.723511 
	C481.748779,278.626617 479.052368,278.273773 476.926270,277.183167 
	C469.960693,273.610077 462.976288,270.063965 455.892944,266.733398 
	C450.538422,264.215759 454.476105,261.465149 455.369354,258.685089 
	C456.515625,255.117554 458.570862,255.727509 461.161316,257.035858 
	C473.050232,263.040558 485.090088,268.754639 496.872620,274.958923 
	C504.610168,279.033264 510.999908,274.409576 517.822815,272.519684 
	C519.325867,272.103424 519.312073,270.071014 519.548950,268.594330 
	C521.777100,254.703262 531.997437,246.443756 545.321960,247.767365 
	C557.440430,248.971176 567.114746,260.402679 566.138184,272.364655 
	C565.074219,285.397858 554.618591,294.409271 540.862122,294.138519 
	C539.722961,294.116089 538.585205,294.024414 536.018494,293.890289 
	C543.660461,297.781647 550.091675,301.056427 556.604553,304.372833 
	C555.773621,307.914001 553.666748,310.233032 551.996826,313.058807 
	C545.935181,311.039917 540.515259,308.131348 535.122559,305.255493 
	C531.842896,303.506531 529.807678,303.910217 528.604614,307.423309 
	C527.171875,311.607391 522.359802,314.622192 524.310608,320.043732 
	C524.526855,320.644623 523.507812,321.759796 522.949646,322.558228 
	C519.239563,327.865265 519.277832,329.837799 523.416626,334.993134 
	C523.150085,335.461975 522.975403,336.227020 522.504211,336.528259 
	C516.934692,340.089050 515.208740,344.872467 516.325195,351.481140 
	C516.970520,355.300842 515.493225,358.369049 510.884766,360.754852 
	C504.768311,363.921326 499.045380,364.477814 492.666992,363.547394 
	C490.143250,363.179260 487.770325,363.813965 485.691986,365.215271 
	C485.688629,368.558167 487.331512,370.436249 489.849030,371.780243 
	C492.933258,373.426727 496.054443,375.017792 499.041687,376.827545 
	C501.271698,378.178589 503.198395,377.607239 505.101318,376.378723 
	C513.605042,370.888763 523.663147,368.424286 531.968506,362.574951 
	C534.311829,360.924530 536.249817,361.670868 538.407410,362.921692 
	C546.043884,367.348846 553.737976,371.676422 561.729980,376.223999 
M482.373505,293.988708 
	C479.012238,294.930908 475.679474,295.996124 472.282074,296.782196 
	C468.568756,297.641388 467.569519,299.146362 469.869598,302.627289 
	C473.811829,308.593353 477.440216,314.766418 481.218567,320.841278 
	C487.308655,330.632874 487.015564,329.941254 497.651337,325.311890 
	C509.816803,320.016632 516.374451,310.786072 520.354797,298.564484 
	C510.424835,293.315186 501.108978,286.109894 488.901978,292.160400 
	C487.152313,293.027679 485.067596,293.219025 482.373505,293.988708 
M471.737640,325.693817 
	C467.539001,318.917114 463.213043,312.214935 459.185883,305.337830 
	C456.440186,300.649017 452.804596,302.602051 449.130737,303.362823 
	C445.498932,304.114929 444.848358,306.437225 445.234314,309.629883 
	C445.671692,313.247925 445.898560,316.891296 446.330261,320.510162 
	C447.384491,329.347595 448.504150,338.177216 449.689606,347.754517 
	C459.217621,343.291931 468.099731,339.181946 476.508484,334.304443 
	C475.469116,330.853790 473.565582,328.710175 471.737640,325.693817 
M445.467316,284.499390 
	C444.910828,283.938934 444.095642,282.793701 443.554688,283.420288 
	C441.202820,286.144440 442.816193,289.087952 443.763306,291.769806 
	C444.284424,293.245453 446.115692,292.956085 447.216797,292.166412 
	C450.254547,289.987885 447.355255,288.185333 446.650787,286.263336 
	C446.485840,285.813293 446.109589,285.440735 445.467316,284.499390 
z"/>
<path fill="#000000" opacity="1.000000" stroke="none" 
	d="
M471.905090,440.943726 
	C458.685608,451.415314 440.735138,449.179169 432.102417,436.268127 
	C423.324921,423.140564 427.342316,405.588776 440.947449,397.624390 
	C451.805908,391.267914 467.207062,394.062897 474.919220,403.789642 
	C483.279663,414.333893 482.077301,430.445770 471.905090,440.943726 
z"/>
<path fill="#000000" opacity="1.000000" stroke="none" 
	d="
M555.847656,316.294128 
	C560.125244,305.465820 568.518005,299.563934 578.844666,299.807098 
	C588.578064,300.036285 597.014038,306.264648 600.392456,315.716125 
	C603.577332,324.626221 600.827393,334.964264 593.648315,341.201935 
	C591.116150,343.402100 588.097900,344.748749 584.914795,346.025879 
	C585.716492,351.513336 592.661804,348.084167 593.841614,352.695679 
	C592.461060,354.753296 590.343689,353.660156 588.476807,353.828827 
	C578.525085,354.727936 572.015747,348.040375 564.925415,342.939087 
	C555.578857,336.214386 552.840088,327.699768 555.847656,316.294128 
z"/>
<path fill="#000000" opacity="1.000000" stroke="none" 
	d="
M422.597717,225.142029 
	C435.604645,220.870285 447.658936,228.581741 451.395874,236.655029 
	C456.970520,248.698425 452.474976,262.665527 440.936279,268.160431 
	C428.910400,273.887299 414.273529,268.880096 409.121460,257.276764 
	C403.430054,244.458771 408.927124,231.031067 422.597717,225.142029 
z"/>
<path fill="#000000" opacity="1.000000" stroke="none" 
	d="
M356.836670,347.194580 
	C341.830017,351.890961 329.181885,345.094299 325.559906,330.723511 
	C322.228729,317.506622 330.609802,304.891083 344.472137,302.255890 
	C354.685913,300.314331 365.855316,306.618378 369.855164,316.582153 
	C373.820526,326.459961 369.886658,339.376160 361.174042,344.949585 
	C359.916992,345.753693 358.533691,346.360443 356.836670,347.194580 
z"/>
<path fill="#000000" opacity="1.000000" stroke="none" 
	d="
M292.867798,652.955811 
	C295.641022,645.265381 300.275848,642.972839 307.877014,645.046753 
	C309.991486,645.623657 310.299805,647.018372 310.300140,648.791992 
	C310.302704,662.276672 310.242920,675.761841 310.354034,689.245667 
	C310.386780,693.218811 307.983673,693.287415 305.097168,693.335876 
	C301.908234,693.389404 299.576813,693.004211 299.660522,688.873535 
	C299.832428,680.388733 299.712158,671.898010 299.097900,663.187439 
	C296.457092,669.778625 293.810669,676.367554 291.178040,682.962036 
	C289.979645,685.963867 288.865509,688.516724 284.632782,688.504944 
	C280.375305,688.493042 279.357819,685.921997 278.199860,682.886780 
	C275.711029,676.362915 273.152832,669.865540 269.913727,663.404907 
	C269.913727,671.536987 269.801178,679.671387 269.962372,687.800232 
	C270.040192,691.724915 268.872986,693.491943 264.559845,693.433533 
	C260.491852,693.378540 258.954926,692.137756 259.016022,687.966797 
	C259.198914,675.483948 259.163818,662.995178 258.999451,650.511475 
	C258.946045,646.454956 260.397980,644.918152 264.522247,644.901001 
	C273.741974,644.862732 273.683990,644.717163 276.850281,653.309509 
	C279.035004,659.238159 281.396606,665.101868 283.707062,670.983704 
	C283.933746,671.560791 284.356140,672.061096 285.178497,673.390381 
	C287.862061,666.259094 290.296234,659.790588 292.867798,652.955811 
z"/>
<path fill="#000000" opacity="1.000000" stroke="none" 
	d="
M714.927979,685.053284 
	C710.525269,678.046936 706.320862,671.347046 702.116455,664.647156 
	C701.811768,664.751831 701.507019,664.856445 701.202332,664.961121 
	C701.202332,672.396484 701.071045,679.835083 701.255188,687.265930 
	C701.353882,691.253723 700.513489,693.426147 695.795410,693.387573 
	C691.292358,693.350708 690.619263,691.258850 690.661438,687.514832 
	C690.798157,675.359619 690.664185,663.201416 690.764465,651.045532 
	C690.781860,648.939575 689.644531,645.864197 693.057861,645.317261 
	C696.413330,644.779480 700.011719,643.967896 702.446716,647.812378 
	C707.524109,655.828552 712.757935,663.745605 717.932007,671.700378 
	C718.266663,672.214905 718.640381,672.703918 719.677124,674.164490 
	C719.677124,665.294128 719.831543,657.533875 719.611694,649.784241 
	C719.502197,645.925171 721.208862,644.885376 724.685425,644.937073 
	C727.921692,644.985168 730.210022,645.523987 730.182190,649.520203 
	C730.090576,662.675354 730.149231,675.831543 730.122681,688.987305 
	C730.118896,690.837097 730.131714,693.034424 727.604736,693.098328 
	C724.590271,693.174683 721.144348,694.509460 718.834229,691.285889 
	C717.479492,689.395630 716.354614,687.340637 714.927979,685.053284 
z"/>
<path fill="#000000" opacity="1.000000" stroke="none" 
	d="
M602.807617,664.754456 
	C602.500916,672.386719 602.244507,679.876709 602.409119,687.357483 
	C602.498291,691.412170 601.634399,693.472473 596.951477,693.415894 
	C592.482727,693.361877 591.740967,691.313904 591.786499,687.541626 
	C591.933289,675.388733 591.812988,663.232849 591.902832,651.078918 
	C591.918762,648.925476 590.939880,645.837280 594.217529,645.307068 
	C597.519592,644.773010 601.211365,643.791382 603.657715,647.640320 
	C608.032288,654.522888 612.500366,661.346436 616.977844,668.162842 
	C617.935059,669.620056 618.424011,671.502319 620.879761,672.552917 
	C620.879761,664.958374 621.041199,657.694824 620.817017,650.443237 
	C620.689697,646.324951 622.227112,644.848083 626.333069,644.871460 
	C630.347839,644.894348 631.438171,646.560730 631.389893,650.317261 
	C631.231445,662.636230 631.391907,674.959045 631.288147,687.279175 
	C631.270569,689.370972 632.465881,692.576965 629.085571,693.022644 
	C625.828125,693.452148 622.110474,694.567139 619.694092,690.588867 
	C614.855530,682.622925 609.850891,674.757690 604.885193,666.869507 
	C604.370178,666.051392 603.655396,665.359070 602.807617,664.754456 
z"/>
<path fill="#000000" opacity="1.000000" stroke="none" 
	d="
M875.622314,748.690430 
	C879.338928,755.422363 879.532898,762.833130 881.172424,769.868652 
	C882.586121,775.935120 884.593262,781.980530 884.470764,788.534668 
	C880.186279,789.677063 876.905579,789.991455 876.420288,784.420044 
	C876.230957,782.246826 875.496216,780.259705 872.479919,780.264343 
	C869.397644,780.269104 868.399109,781.852051 868.199707,784.550354 
	C867.943542,788.015198 866.072815,789.545532 862.569031,789.240234 
	C860.752380,789.082031 858.905823,789.130737 857.081055,789.233093 
	C854.294678,789.389282 852.785889,788.241150 852.239807,785.426025 
	C851.795715,783.136719 851.971802,780.338501 848.174011,780.281250 
	C844.062988,780.219299 844.447144,783.214783 843.856079,785.677856 
	C843.406555,787.551331 842.762451,789.146606 840.371765,789.201050 
	C837.433838,789.267944 835.492737,788.862183 836.343506,785.023438 
	C838.751526,774.158691 841.040955,763.264099 843.130371,752.334045 
	C843.900085,748.307556 846.611328,748.705261 849.467590,748.564453 
	C852.343201,748.422729 852.963074,749.876099 853.436890,752.402588 
	C855.420044,762.976196 857.679077,773.498047 860.585876,784.074585 
	C862.668640,774.459900 865.047729,764.896362 866.716553,755.210388 
	C867.633118,749.890686 869.923706,747.613647 875.622314,748.690430 
M846.412781,769.587830 
	C846.565735,771.070190 845.579468,773.420166 848.233459,773.277466 
	C850.347168,773.163940 849.797058,771.046570 849.646423,769.686523 
	C849.358459,767.087708 848.822632,764.516357 848.389709,761.933655 
	C848.195984,761.970886 848.002258,762.008179 847.808533,762.045410 
	C847.377380,764.297913 846.946228,766.550415 846.412781,769.587830 
M872.933228,773.469238 
	C875.471313,769.568481 872.626526,765.907104 872.483521,762.105225 
	C871.708374,764.802673 871.121582,767.506470 870.593506,770.221680 
	C870.301392,771.723877 870.070618,773.264160 872.933228,773.469238 
z"/>
<path fill="#000000" opacity="1.000000" stroke="none" 
	d="
M581.806458,646.394653 
	C582.488281,654.490845 582.488953,654.513855 574.915710,654.741272 
	C571.089294,654.856262 567.258972,654.950012 563.432068,654.906921 
	C560.031006,654.868652 559.327209,656.723999 559.325073,659.698181 
	C559.322937,662.682373 560.470032,663.960754 563.442505,663.904114 
	C567.270142,663.831177 571.104675,664.042542 574.929504,663.920776 
	C578.521606,663.806396 579.419189,665.577942 579.387756,668.854919 
	C579.357483,672.029297 578.272461,673.443726 575.013672,673.306030 
	C571.523438,673.158508 568.005188,673.496216 564.529419,673.228821 
	C560.108521,672.888794 559.361328,675.097290 559.239319,678.934998 
	C559.102234,683.245789 561.170349,683.961365 564.714478,683.851685 
	C569.371887,683.707520 574.038757,683.899719 578.699463,683.821899 
	C581.880310,683.768860 583.168091,685.157104 583.121704,688.346802 
	C583.076721,691.446350 582.453430,693.425720 578.706177,693.358215 
	C570.217102,693.205383 561.722534,693.247620 553.231934,693.350037 
	C550.155640,693.387146 548.652771,692.402588 548.676575,689.069763 
	C548.771912,675.749878 548.730530,662.428833 548.686768,649.108337 
	C548.679138,646.801025 549.290527,645.053223 551.900085,645.055542 
	C561.379944,645.063843 570.859863,645.155151 580.339172,645.263062 
	C580.764954,645.267944 581.185303,645.740356 581.806458,646.394653 
z"/>
<path fill="#000000" opacity="1.000000" stroke="none" 
	d="
M332.424377,671.617310 
	C332.644226,673.888306 332.742920,675.725037 333.095795,677.511536 
	C334.135498,682.774963 337.257294,685.058594 342.691742,684.665771 
	C347.331604,684.330444 350.539642,681.113403 350.645844,676.105591 
	C350.829224,667.453918 350.898407,658.792725 350.693085,650.143188 
	C350.598816,646.173340 352.118500,644.873413 355.936096,644.896729 
	C359.591766,644.919067 362.066254,645.412598 361.934265,649.960754 
	C361.664185,659.266602 362.475616,668.587524 361.384430,677.890076 
	C360.100250,688.838135 352.876587,694.540527 340.322235,694.316284 
	C329.539307,694.123718 322.327637,687.817078 321.858643,677.372620 
	C321.433472,667.903809 321.814301,658.401306 321.686005,648.915710 
	C321.624634,644.377441 324.764557,645.091492 327.530945,644.937012 
	C330.577240,644.766907 332.609955,645.271912 332.476379,649.191528 
	C332.227051,656.506531 332.414001,663.836365 332.424377,671.617310 
z"/>
<path fill="#000000" opacity="1.000000" stroke="none" 
	d="
M660.206543,644.922668 
	C665.200684,644.124451 667.559509,646.121277 669.056519,650.486328 
	C673.426270,663.227234 678.188171,675.833374 682.749817,688.509155 
	C683.185486,689.719727 683.295532,691.047424 683.548828,692.282104 
	C675.646057,694.798889 673.521362,693.945129 670.997131,686.921692 
	C670.076355,684.359863 668.747925,682.995422 665.961670,683.141968 
	C664.135742,683.238098 662.280884,683.324036 660.472839,683.117798 
	C655.391113,682.538330 651.980042,683.737427 650.709717,689.515381 
	C649.760437,693.833740 646.175110,694.460266 639.491150,692.337952 
	C638.976135,689.323547 640.960999,686.995789 641.879517,684.402588 
	C646.044373,672.643311 650.399536,660.951477 654.567932,649.193420 
	C655.493530,646.582581 656.653931,644.664368 660.206543,644.922668 
M659.691284,674.519897 
	C661.897278,674.346741 664.291870,675.384216 666.520081,673.409851 
	C665.064270,668.533752 664.130981,663.487122 661.366089,658.343079 
	C659.805542,663.105347 658.583374,667.235291 657.080322,671.260315 
	C656.273254,673.421631 656.672791,674.401306 659.691284,674.519897 
z"/>
<path fill="#000000" opacity="1.000000" stroke="none" 
	d="
M720.279602,768.000366 
	C720.283081,773.998657 720.247681,779.497437 720.307190,784.995239 
	C720.334290,787.504333 719.727539,789.241516 716.737183,789.170105 
	C713.724609,789.098083 713.278870,787.349121 713.428162,784.820801 
	C713.829590,778.017273 712.454407,771.196411 713.234192,764.329956 
	C712.072327,771.111816 710.965027,777.903809 709.714600,784.669373 
	C709.347473,786.656006 709.515808,789.346802 706.212097,789.084595 
	C703.346436,788.857239 703.021912,786.658142 702.639771,784.452148 
	C701.649597,778.736755 700.602783,773.031128 699.254700,767.334961 
	C699.254700,773.077026 699.256714,778.819153 699.253723,784.561218 
	C699.252563,786.826416 699.210327,789.033813 696.028198,789.066772 
	C692.909241,789.099121 692.670227,787.037354 692.672302,784.689880 
	C692.681641,774.192993 692.730835,763.695374 692.622498,753.199585 
	C692.590759,750.132385 693.493347,748.528198 696.847839,748.599792 
	C699.975769,748.666443 702.831665,748.412231 703.295227,752.801331 
	C703.936829,758.877197 705.001282,764.908447 706.439209,770.898438 
	C707.512817,764.918945 708.894653,758.973694 709.562317,752.949280 
	C710.095215,748.140381 713.183777,748.717590 716.384033,748.625305 
	C720.006897,748.520935 720.357239,750.725891 720.316101,753.504761 
	C720.247131,758.169189 720.286011,762.835144 720.279602,768.000366 
z"/>
<path fill="#000000" opacity="1.000000" stroke="none" 
	d="
M553.615662,757.696899 
	C554.424683,749.138794 555.014099,748.449158 560.063477,748.590637 
	C562.717896,748.664978 564.117188,749.601013 564.121521,752.373901 
	C564.138611,763.360107 564.198669,774.346313 564.228210,785.332520 
	C564.234497,787.653381 563.390808,789.209106 560.720215,789.078003 
	C558.274414,788.957886 557.733826,787.362061 557.732117,785.329590 
	C557.726746,779.011047 557.730103,772.692444 557.730103,765.601685 
	C556.550537,772.647522 555.469238,778.923035 554.466187,785.210999 
	C554.166565,787.089050 554.018127,789.005920 551.501282,789.045349 
	C548.788208,789.087891 548.311951,786.958679 547.997681,784.982422 
	C547.083984,779.236938 546.315247,773.468567 545.461121,767.713379 
	C545.372803,767.118164 545.092957,766.551331 544.626892,766.017517 
	C545.468872,772.164978 545.146667,778.306030 545.141663,784.437683 
	C545.139832,786.671814 545.123718,788.956421 541.988464,789.061462 
	C538.824768,789.167297 538.681396,786.979614 538.682495,784.675720 
	C538.687500,774.021790 538.783203,763.366394 538.628174,752.714722 
	C538.578613,749.303162 540.277161,748.430054 543.162048,748.292419 
	C545.973755,748.158325 547.950806,748.658875 548.358032,752.086243 
	C549.139893,758.666260 550.248230,765.207520 551.337646,772.550537 
	C552.169739,767.198181 552.874146,762.666504 553.615662,757.696899 
z"/>
<path fill="#000000" opacity="1.000000" stroke="none" 
	d="
M776.342712,650.439453 
	C776.558105,654.353149 774.197327,654.321472 771.721680,654.397644 
	C762.610840,654.678040 762.769226,654.710632 762.829529,663.853455 
	C762.885498,672.325317 762.456970,680.799561 762.439392,689.273071 
	C762.431091,693.276550 759.906006,693.270508 757.091248,693.284973 
	C754.258911,693.299561 751.692688,693.263977 751.724365,689.291138 
	C751.794678,680.480591 751.708435,671.668762 751.705566,662.857483 
	C751.702881,654.554321 751.713806,654.554260 743.414368,654.407471 
	C738.487305,654.320374 737.383179,653.058777 737.979004,648.552795 
	C738.263000,646.405518 739.231995,645.094543 741.421326,645.080933 
	C752.059570,645.014832 762.698242,644.987061 773.336731,644.997375 
	C776.993835,645.000977 776.357300,647.730957 776.342712,650.439453 
z"/>
<path fill="#000000" opacity="1.000000" stroke="none" 
	d="
M540.332031,651.342590 
	C539.866577,655.486023 536.932373,654.284180 534.876770,654.353821 
	C526.782410,654.627991 526.395264,654.943420 526.402405,662.884827 
	C526.410156,671.530090 526.275696,680.179138 526.498962,688.818909 
	C526.591736,692.407410 525.231506,693.533142 521.844910,693.348877 
	C518.742432,693.180054 515.747375,693.516724 515.797241,688.909973 
	C515.901672,679.264954 515.573547,669.612122 515.829712,659.973328 
	C515.946472,655.576172 514.507080,653.850464 510.128510,654.333801 
	C507.856628,654.584595 505.534180,654.377930 503.370422,654.377930 
	C501.315674,645.706787 501.878387,644.956970 510.022400,644.933899 
	C518.172119,644.910889 526.330505,645.131042 534.468140,644.811157 
	C539.164856,644.626526 541.519104,645.845764 540.332031,651.342590 
z"/>
<path fill="#000000" opacity="1.000000" stroke="none" 
	d="
M435.329590,674.000244 
	C435.321381,679.321960 435.142273,684.151550 435.355927,688.963684 
	C435.543488,693.188049 433.031860,693.313660 429.919220,693.352844 
	C426.643829,693.394104 424.548645,692.846680 424.627869,688.784973 
	C424.815857,679.144775 424.516479,669.494568 424.738007,659.855835 
	C424.832489,655.745789 423.432343,653.965271 419.304535,654.393921 
	C417.988892,654.530579 416.637695,654.309143 415.317932,654.424805 
	C411.901917,654.724060 410.610962,653.286987 410.602692,649.820312 
	C410.594666,646.474670 411.646454,644.893677 415.131561,644.921448 
	C425.107391,645.000977 435.084656,645.001221 445.060486,644.922913 
	C448.821625,644.893372 449.256226,647.087280 449.320190,650.118652 
	C449.389587,653.406982 447.983002,654.372559 444.854309,654.468628 
	C435.336700,654.760803 435.339722,654.867371 435.332947,664.521545 
	C435.330872,667.514526 435.330505,670.507568 435.329590,674.000244 
z"/>
<path fill="#000000" opacity="1.000000" stroke="none" 
	d="
M220.276245,750.489868 
	C222.716370,756.875305 224.980606,762.885315 227.757797,770.256897 
	C227.757797,763.458740 227.797958,758.154541 227.740143,752.851318 
	C227.712906,750.351501 228.289261,748.737610 231.295486,748.669556 
	C234.528961,748.596375 235.229950,750.257874 235.217453,753.014221 
	C235.169907,763.504211 235.225464,773.994690 235.203766,784.484863 
	C235.199646,786.478149 235.327805,788.680176 232.547073,789.079651 
	C229.865372,789.464844 227.677353,789.084595 226.589096,786.015991 
	C224.478149,780.063782 222.143326,774.190979 219.238174,768.273438 
	C219.238174,773.540161 219.224106,778.806885 219.244019,784.073486 
	C219.254196,786.761230 219.057297,789.146729 215.385452,789.084534 
	C211.651138,789.021179 211.728256,786.475891 211.724243,783.883667 
	C211.709015,774.059387 211.666046,764.235168 211.676544,754.410889 
	C211.683167,748.219788 214.306290,746.900696 220.276245,750.489868 
z"/>
<path fill="#000000" opacity="1.000000" stroke="none" 
	d="
M749.646240,776.980347 
	C749.639038,768.660645 749.612549,760.836609 749.636841,753.012756 
	C749.643005,751.042480 749.375732,748.835205 752.390015,748.681885 
	C754.920776,748.553223 757.335022,748.177673 758.446838,751.475952 
	C760.559937,757.744568 762.930054,763.926514 765.678162,771.476196 
	C765.678162,764.283630 765.722717,758.499207 765.657837,752.716064 
	C765.628723,750.124451 766.428406,748.682129 769.345215,748.677307 
	C772.213074,748.672607 773.171387,750.037231 773.153198,752.652344 
	C773.079041,763.305786 773.061584,773.959778 772.974121,784.613098 
	C772.957825,786.596924 773.056763,788.810364 770.250854,789.153015 
	C767.596436,789.477112 765.345276,789.181702 764.257996,786.109863 
	C761.955994,779.606750 759.474670,773.167114 756.750732,766.787048 
	C757.366150,772.487549 756.893738,778.125366 756.873535,783.753052 
	C756.864685,786.224426 757.016235,788.980652 753.273865,789.095703 
	C749.397339,789.214783 749.691284,786.491516 749.662354,783.968201 
	C749.637573,781.804382 749.649902,779.640076 749.646240,776.980347 
z"/>
<path fill="#000000" opacity="1.000000" stroke="none" 
	d="
M156.288605,752.249878 
	C156.305313,763.210571 156.320526,773.698608 156.287628,784.186523 
	C156.280991,786.302917 156.652145,788.695251 153.484604,789.111389 
	C150.603516,789.489929 148.715927,788.509216 147.710068,785.660034 
	C145.611176,779.714417 143.379028,773.815918 140.299118,767.930969 
	C140.299118,773.411194 140.281754,778.891479 140.306915,784.371582 
	C140.318405,786.872437 140.162186,789.097595 136.766144,789.136658 
	C133.502945,789.174133 132.936752,787.165527 132.931061,784.561584 
	C132.908142,774.073669 132.853470,763.585754 132.862473,753.097839 
	C132.864151,751.130249 132.668884,748.912109 135.615585,748.688293 
	C138.310043,748.483704 140.925568,748.099426 142.125824,751.564819 
	C144.123657,757.333008 146.336411,763.026733 149.360489,768.650574 
	C149.360489,762.270020 149.360489,755.889465 149.360489,749.216980 
	C152.547546,748.982849 155.606781,747.048157 156.288605,752.249878 
z"/>
<path fill="#000000" opacity="1.000000" stroke="none" 
	d="
M603.732178,783.187805 
	C601.992615,777.934814 600.356995,773.065918 598.721313,768.197083 
	C598.517578,768.214172 598.313904,768.231323 598.110168,768.248413 
	C598.110168,773.757141 598.082031,779.266113 598.122070,784.774597 
	C598.141846,787.494873 597.369202,789.284119 594.170227,789.168945 
	C591.181335,789.061340 590.698853,787.229309 590.705688,784.809937 
	C590.735962,774.164734 590.731750,763.519409 590.741150,752.874146 
	C590.743042,750.762695 590.889282,748.774658 593.760376,748.722900 
	C596.098206,748.680725 598.430908,748.327148 599.433533,751.386536 
	C601.491943,757.667847 603.721069,763.893250 606.159302,770.116150 
	C605.364258,764.041870 606.658325,758.056396 606.535339,752.036560 
	C606.488647,749.753845 607.328430,748.669434 609.711853,748.688232 
	C611.903625,748.705566 613.234741,749.434631 613.234558,751.806396 
	C613.233704,763.116699 613.241699,774.427002 613.225098,785.737305 
	C613.222778,787.312866 612.915466,788.850891 610.978088,789.051636 
	C609.030762,789.253540 606.835693,789.773315 605.534912,787.702209 
	C604.754700,786.459839 604.388367,784.957458 603.732178,783.187805 
z"/>
<path fill="#000000" opacity="1.000000" stroke="none" 
	d="
M463.346802,788.975403 
	C446.938293,789.595947 450.054932,790.154846 449.810150,777.024841 
	C449.661407,769.044189 449.839478,761.057434 449.702362,753.076294 
	C449.647949,749.907288 450.821198,748.748108 454.043549,748.596924 
	C470.216431,747.838196 473.066925,750.434387 473.188110,766.655212 
	C473.215424,770.312927 473.323486,773.984314 473.069183,777.626709 
	C472.658966,783.501343 470.072632,787.777588 463.346802,788.975403 
M458.022675,774.379150 
	C458.029816,775.701660 457.961395,777.030029 458.063019,778.345215 
	C458.194275,780.043518 457.595367,782.408142 460.404297,782.360107 
	C462.496979,782.324341 464.538239,781.374146 464.593903,778.960815 
	C464.750092,772.192932 464.775665,765.415527 464.581116,758.649719 
	C464.515594,756.371094 462.733612,755.208191 460.408325,755.373901 
	C458.099121,755.538574 458.054810,757.353027 458.041138,759.029907 
	C458.002075,763.823730 458.024170,768.617981 458.022675,774.379150 
z"/>
<path fill="#000000" opacity="1.000000" stroke="none" 
	d="
M378.165710,693.299622 
	C374.175812,693.559326 373.620575,691.445435 373.630127,688.561768 
	C373.673706,675.415527 373.741089,662.267090 373.532288,649.123718 
	C373.469849,645.193604 375.465515,644.803467 378.502350,644.886230 
	C381.653625,644.972046 384.471924,644.816162 384.362732,649.447388 
	C384.135284,659.093933 384.453064,668.753662 384.205475,678.399170 
	C384.099213,682.539246 385.496368,684.090820 389.629303,683.842896 
	C393.939789,683.584290 398.280151,683.870789 402.604980,683.788940 
	C406.316406,683.718628 406.345764,686.130676 406.371002,688.812195 
	C406.396118,691.479919 405.899078,693.353943 402.610229,693.319336 
	C394.623535,693.235352 386.635284,693.300659 378.165710,693.299622 
z"/>
<path fill="#000000" opacity="1.000000" stroke="none" 
	d="
M370.952850,764.580994 
	C368.446869,768.280090 368.446869,768.280090 371.911804,772.793274 
	C373.191437,772.617859 373.133545,771.358215 373.610138,770.577332 
	C374.669952,768.840759 376.089111,769.307983 377.546906,769.750977 
	C379.179321,770.246948 379.664001,771.639526 379.125732,772.902466 
	C376.838501,778.269165 375.666748,783.480530 380.570129,788.902283 
	C373.979706,787.959473 368.042023,789.868774 362.253754,789.664612 
	C353.893829,789.369751 350.260742,778.116394 355.971161,770.592163 
	C358.593140,767.137329 359.422974,764.467346 357.608063,760.489380 
	C355.874756,756.690247 356.906952,752.845825 359.885010,749.963440 
	C362.655853,747.281677 366.118896,747.016052 369.592102,748.701904 
	C373.244965,750.475037 374.254272,753.736145 373.900055,757.441650 
	C373.662292,759.928650 372.724152,762.273560 370.952850,764.580994 
M365.736115,777.719177 
	C364.752167,776.452209 364.422607,774.629272 362.368225,773.911743 
	C360.720917,775.893921 359.741821,778.015320 360.986877,780.586609 
	C362.024689,782.729797 363.925293,783.387024 365.994843,782.423157 
	C368.456970,781.276489 366.675018,779.698120 365.736115,777.719177 
M367.373718,755.356201 
	C366.682129,754.335815 365.708069,753.249939 364.739349,754.679932 
	C363.562286,756.417603 363.743073,758.351196 365.411438,759.973022 
	C367.368927,759.220276 367.567139,757.651489 367.373718,755.356201 
z"/>
<path fill="#000000" opacity="1.000000" stroke="none" 
	d="
M445.310455,787.008362 
	C444.284729,790.574036 441.748474,789.154419 439.838318,789.054382 
	C437.657074,788.940063 437.519409,786.905579 437.375549,785.283569 
	C437.111420,782.305481 437.042236,779.310059 436.895905,776.321594 
	C436.772491,773.800842 435.696686,772.179871 432.941345,772.249695 
	C429.831909,772.328430 430.361359,774.717651 430.305389,776.621277 
	C430.222290,779.447510 430.200531,782.279480 430.279846,785.105408 
	C430.362915,788.066040 429.044708,789.283691 426.079620,789.260010 
	C423.162567,789.236633 422.462677,787.825378 422.496185,785.182312 
	C422.631104,774.535400 422.723328,763.885437 422.600189,753.239258 
	C422.559814,749.750427 423.837524,748.372253 427.257660,748.614136 
	C429.409760,748.766357 431.581818,748.616272 433.744324,748.644653 
	C443.428009,748.771790 448.035095,755.855469 444.040863,764.884827 
	C443.008789,767.217957 442.829529,768.862671 443.869385,771.297668 
	C445.936462,776.137939 445.009735,781.468323 445.310455,787.008362 
M437.056976,758.091492 
	C436.162476,755.209534 433.536133,754.140747 431.673126,755.679504 
	C428.816193,758.039246 430.380524,761.630615 430.766541,764.753845 
	C436.441223,764.680359 436.481049,764.641785 437.056976,758.091492 
z"/>
<path fill="#000000" opacity="1.000000" stroke="none" 
	d="
M415.337769,751.915710 
	C418.834229,762.474609 418.796509,772.901794 416.452942,783.186646 
	C415.317383,788.169800 410.648315,789.770447 405.838226,789.881531 
	C400.470673,790.005554 396.027710,787.459778 394.941864,782.828735 
	C392.795959,773.676636 392.562592,764.226990 394.853668,755.167725 
	C397.024323,746.584534 407.910217,744.962708 415.337769,751.915710 
M403.514008,782.158020 
	C406.756683,783.731445 409.188446,782.301147 409.361481,779.221436 
	C409.760132,772.125427 409.555542,764.984680 409.319275,757.871216 
	C409.257050,755.998169 407.795685,754.472595 405.629761,754.503113 
	C403.699341,754.530334 402.472839,755.863464 402.321716,757.635193 
	C401.636993,765.662231 400.544159,773.720520 403.514008,782.158020 
z"/>
<path fill="#000000" opacity="1.000000" stroke="none" 
	d="
M518.950989,749.507446 
	C524.287048,753.010986 526.284180,759.502930 523.292542,764.892761 
	C521.838623,767.512268 521.972900,769.239319 523.382141,771.562927 
	C524.924866,774.106628 524.221863,777.078674 524.300537,779.876038 
	C524.379272,782.676575 524.317871,785.481018 524.317871,788.382751 
	C518.304382,790.403442 516.854675,789.409485 516.732971,782.888550 
	C516.701965,781.227234 516.638855,779.562134 516.711487,777.904114 
	C516.911316,773.336487 514.700684,771.581055 510.041077,772.160767 
	C508.784607,776.256104 509.459015,780.370544 509.606659,784.445801 
	C509.697479,786.952148 509.644928,789.125366 506.220032,789.268372 
	C502.980103,789.403687 501.746796,788.003723 501.763397,784.855164 
	C501.819427,774.220642 501.801636,763.585144 501.716553,752.950806 
	C501.693970,750.124207 502.577789,748.488037 505.682343,748.655640 
	C509.974609,748.887329 514.323181,748.064331 518.950989,749.507446 
M509.406860,762.626221 
	C509.479492,765.417419 511.296722,765.250793 513.209167,764.834167 
	C515.993713,764.227478 516.739441,762.209167 516.700745,759.671204 
	C516.668213,757.532715 516.152771,755.665955 513.664490,755.325684 
	C507.726013,754.513428 509.836853,759.036865 509.406860,762.626221 
z"/>
<path fill="#000000" opacity="1.000000" stroke="none" 
	d="
M291.658630,765.002563 
	C291.658722,760.515198 291.726837,756.525635 291.638489,752.539429 
	C291.577942,749.806763 292.738800,748.574951 295.487274,748.676453 
	C297.643768,748.756042 299.822784,748.822815 301.964233,748.613220 
	C313.574860,747.477173 316.881989,756.391541 312.819641,766.211060 
	C312.389984,767.249695 311.314819,768.062561 312.167511,769.345886 
	C316.115601,775.287842 313.234650,782.024658 314.779846,788.159607 
	C308.415375,790.248108 306.860046,789.183777 306.664276,783.100647 
	C306.579163,780.455200 306.640106,777.768799 306.180328,775.181763 
	C305.728577,772.640076 303.557190,771.785950 301.226685,772.027527 
	C298.770813,772.281982 299.419159,774.439575 299.368713,775.972351 
	C299.264832,779.126526 299.274536,782.286560 299.319550,785.442993 
	C299.354248,787.875977 298.401642,789.133972 295.810913,789.143188 
	C293.211121,789.152466 291.690491,788.280945 291.699005,785.442139 
	C291.718933,778.795471 291.676880,772.148621 291.658630,765.002563 
M303.843109,764.605530 
	C306.887573,762.935730 307.199768,760.349365 306.015533,757.471802 
	C305.210602,755.515808 303.371948,754.976990 301.480774,755.430115 
	C298.117249,756.236023 299.593079,759.099854 299.362610,761.153320 
	C299.065308,763.801819 300.221008,765.239807 303.843109,764.605530 
z"/>
<path fill="#000000" opacity="1.000000" stroke="none" 
	d="
M284.877106,752.553711 
	C287.568359,762.755432 286.869690,772.738220 285.597107,782.585449 
	C284.938690,787.680176 280.307098,789.562195 275.508789,789.996338 
	C270.701355,790.431274 265.665222,787.706482 264.434113,783.145508 
	C261.842316,773.543457 261.406891,763.604309 264.508972,754.132202 
	C267.151764,746.062439 278.363281,745.284180 284.877106,752.553711 
M271.102722,767.524414 
	C271.160126,771.328979 271.149841,775.136292 271.302307,778.937073 
	C271.383240,780.955383 272.424866,782.447205 274.578857,782.669067 
	C276.727631,782.890381 278.332520,781.695190 278.468140,779.685242 
	C278.958008,772.423340 279.048767,765.135742 278.407104,757.878235 
	C278.237427,755.958923 276.852295,754.466431 274.715271,754.514343 
	C272.538055,754.563171 271.480316,756.133667 271.332977,758.117920 
	C271.125031,760.918457 271.165405,763.737366 271.102722,767.524414 
z"/>
<path fill="#000000" opacity="1.000000" stroke="none" 
	d="
M640.799316,776.677979 
	C640.788635,770.549133 640.522522,764.867310 640.866455,759.222656 
	C641.360718,751.109009 646.437195,746.878967 654.004578,747.759399 
	C660.673706,748.535217 663.844727,753.040771 662.975586,760.877380 
	C659.564880,761.483582 656.090149,762.678467 655.441223,757.139160 
	C655.250854,755.514160 653.765076,754.624878 652.095642,754.745483 
	C650.362732,754.870605 649.399048,756.097961 649.258728,757.737000 
	C648.632507,765.053040 648.767517,772.379761 649.244385,779.696655 
	C649.367310,781.582275 650.518494,782.735168 652.523438,782.770020 
	C654.795776,782.809509 655.835632,781.321655 656.233215,779.405823 
	C656.658325,777.357483 657.648865,774.714478 654.971680,773.722595 
	C652.380371,772.762512 651.382935,771.347717 652.099121,768.896362 
	C652.860352,766.290955 655.259277,766.925598 657.162537,766.871094 
	C663.937073,766.677063 664.133423,766.902222 664.116516,773.726196 
	C664.106995,777.558838 664.184998,781.393860 664.072998,785.223389 
	C663.979248,788.425720 662.551208,789.993286 659.274658,788.339478 
	C658.592834,787.995361 658.305542,787.373779 657.216614,787.665283 
	C645.273682,790.862549 642.466858,789.026123 640.799316,776.677979 
z"/>
<path fill="#000000" opacity="1.000000" stroke="none" 
	d="
M834.061401,755.550171 
	C834.237427,757.778503 834.673218,759.872253 832.006958,760.183838 
	C829.894287,760.430664 827.605713,760.873718 826.734131,757.900757 
	C826.054504,755.582336 824.551514,753.704468 822.026855,755.226135 
	C819.182068,756.940796 820.504028,759.418091 822.168030,761.144958 
	C825.391235,764.489990 829.270142,767.258484 832.192749,770.826538 
	C838.449890,778.465454 834.813477,788.323364 825.445618,789.933044 
	C818.530701,791.121216 812.365662,786.056885 812.622314,779.432434 
	C812.691101,777.657104 812.876099,776.032654 815.134460,775.843384 
	C817.170593,775.672729 819.259460,775.436890 819.768555,778.241943 
	C819.827820,778.568542 819.947571,778.883850 820.015808,779.209290 
	C820.376221,780.928650 820.990173,782.437378 823.031128,782.676758 
	C824.448242,782.842896 825.748779,782.567566 826.421692,781.162781 
	C827.289551,779.350952 827.149536,777.404968 825.827332,776.006165 
	C823.550354,773.597229 820.993713,771.450989 818.534851,769.216125 
	C816.302063,767.186707 814.185974,765.081177 813.210815,762.110962 
	C811.307129,756.313232 813.800781,750.479126 819.064331,748.431824 
	C825.400391,745.967407 831.002075,748.489807 834.061401,755.550171 
z"/>
<path fill="#000000" opacity="1.000000" stroke="none" 
	d="
M898.244873,774.804565 
	C894.353271,770.956970 889.712036,768.341187 887.402893,763.453186 
	C885.274353,758.947510 885.592041,754.618713 888.749084,750.855774 
	C891.772156,747.252441 896.009827,747.106262 900.238586,748.138733 
	C904.143799,749.092224 906.570923,751.707092 907.291199,755.688660 
	C907.588928,757.334534 908.735779,759.647705 905.902222,760.110291 
	C903.760742,760.459900 901.077087,761.211182 900.056213,758.019348 
	C899.345581,755.797607 898.359558,753.459229 895.623352,755.231079 
	C893.087036,756.873474 893.928040,759.541138 895.597717,761.307678 
	C898.782837,764.677368 902.577942,767.487854 905.631775,770.959778 
	C909.483398,775.338867 909.427063,782.130676 906.055481,786.171021 
	C902.815247,790.053894 896.197144,791.216248 891.445862,788.664795 
	C887.776794,786.694580 885.846680,783.568848 885.676636,779.403503 
	C885.603027,777.599915 885.985168,776.024353 888.220398,775.869019 
	C890.210754,775.730774 892.437683,775.322571 893.010620,778.078552 
	C893.667603,781.238892 895.058105,784.026672 898.608765,782.173035 
	C902.248901,780.272644 900.237610,777.435059 898.244873,774.804565 
z"/>
<path fill="#000000" opacity="1.000000" stroke="none" 
	d="
M637.617737,778.559692 
	C638.124512,780.920105 638.509460,782.871460 638.892944,784.823059 
	C639.259949,786.690247 639.656738,788.648132 636.966675,789.026672 
	C634.539490,789.368164 632.196838,789.353149 631.724792,786.062500 
	C631.560547,784.917603 631.206238,783.800720 630.957581,782.666992 
	C630.428833,780.257080 628.584595,780.252808 626.685059,780.280518 
	C624.756653,780.308716 623.561829,781.082947 623.289856,783.132141 
	C623.116211,784.440247 622.832336,785.757507 622.402344,787.003113 
	C621.424744,789.834656 619.012573,789.329590 616.952454,788.946289 
	C614.618835,788.512024 615.100586,786.706970 615.455872,784.987976 
	C617.638428,774.429626 619.813599,763.869324 621.886414,753.289062 
	C622.513855,750.086792 623.810669,748.384033 627.488098,748.515381 
	C630.926208,748.638123 631.928223,750.139099 632.478943,753.267273 
	C633.945618,761.597900 635.796997,769.860901 637.617737,778.559692 
M628.426331,773.260132 
	C629.712769,769.579529 627.997498,766.362000 627.135559,762.984314 
	C626.253296,765.445923 625.707581,767.856995 625.397522,770.297913 
	C625.181030,772.002380 625.240234,773.783752 628.426331,773.260132 
z"/>
<path fill="#000000" opacity="1.000000" stroke="none" 
	d="
M584.563477,764.552734 
	C586.060608,771.467529 587.492188,777.962646 588.852600,784.472534 
	C589.257690,786.411133 589.936462,788.684875 586.867615,789.078369 
	C584.466980,789.386169 582.075500,789.406189 581.616089,786.080750 
	C581.457642,784.934082 581.031067,783.826477 580.765076,782.692078 
	C580.271667,780.588196 578.704285,780.380127 576.917969,780.367798 
	C574.923157,780.354065 573.782898,781.275391 573.447632,783.203247 
	C573.248352,784.349731 573.233521,785.538208 572.939514,786.656250 
	C572.269226,789.204895 570.232361,789.265930 568.146118,789.063171 
	C565.870422,788.841919 565.473572,787.161011 565.806946,785.423462 
	C567.999451,773.995605 570.261230,762.580627 572.570923,751.175781 
	C573.320312,747.475525 576.458618,748.899048 578.707397,748.611877 
	C581.028992,748.315308 581.906494,749.801453 582.255432,751.871704 
	C582.946045,755.968750 583.727051,760.050537 584.563477,764.552734 
M577.424011,762.930725 
	C575.521484,765.369080 576.051147,768.418091 575.400818,771.168762 
	C575.168213,772.152649 575.550598,773.270447 576.776550,773.401245 
	C578.286316,773.562378 578.857727,772.472107 578.728271,771.194702 
	C578.463684,768.584045 578.029114,765.990540 577.424011,762.930725 
z"/>
<path fill="#000000" opacity="1.000000" stroke="none" 
	d="
M175.780273,755.001709 
	C176.059372,753.600159 176.356018,752.639160 176.503510,751.655884 
	C177.061554,747.935791 179.854126,748.439392 182.257126,748.822998 
	C185.005554,749.261902 184.193024,751.473572 183.833755,753.196045 
	C181.628540,763.768738 179.342163,774.324463 177.144531,784.898743 
	C176.569016,787.667847 175.414734,789.301331 172.196411,789.292297 
	C169.217529,789.283997 167.482132,788.318237 166.867615,785.336304 
	C164.620438,774.432190 162.311600,763.540771 160.044189,752.640808 
	C159.635605,750.676636 159.638474,748.882385 162.348358,748.726501 
	C165.071671,748.569763 167.719040,748.255615 168.266327,752.171631 
	C169.275650,759.393677 170.532883,766.580994 172.487930,773.847717 
	C173.568390,767.709167 174.648849,761.570618 175.780273,755.001709 
z"/>
<path fill="#000000" opacity="1.000000" stroke="none" 
	d="
M478.684875,788.302979 
	C477.012909,775.877686 477.974976,763.748596 477.766510,751.639099 
	C477.730530,749.549744 478.988129,748.700378 480.951874,748.699280 
	C485.607330,748.696655 490.262756,748.698059 494.918213,748.694275 
	C497.191742,748.692444 498.231873,749.788147 498.152924,752.091125 
	C498.082825,754.136597 497.101410,755.150269 495.092133,755.203796 
	C493.762573,755.239197 492.432068,755.235901 491.102020,755.253967 
	C485.775208,755.326294 484.086395,757.702087 485.639160,762.757568 
	C486.068604,764.155701 486.965637,764.547302 488.221527,764.582947 
	C489.883484,764.630066 491.545868,764.672668 493.208344,764.687256 
	C495.205322,764.704773 496.280487,765.571594 496.313019,767.684998 
	C496.346130,769.835938 495.644135,770.982178 493.270081,771.312317 
	C484.546967,772.525208 484.307159,772.959900 486.186981,782.164978 
	C488.986725,782.164978 491.929199,782.126587 494.870117,782.176880 
	C497.311401,782.218628 498.410858,783.431335 498.312897,785.970703 
	C498.221710,788.334778 497.054138,789.286682 494.877197,789.206848 
	C489.587677,789.012878 484.258636,789.898804 478.684875,788.302979 
z"/>
<path fill="#000000" opacity="1.000000" stroke="none" 
	d="
M206.145050,767.120422 
	C206.409210,771.340271 203.779434,771.228394 201.176270,771.313354 
	C196.012573,771.481812 193.394989,775.938782 195.496567,780.731201 
	C196.225815,782.394165 197.560684,782.099854 198.853088,782.131042 
	C201.011734,782.183228 203.176041,782.143066 205.327972,782.289124 
	C207.319763,782.424255 208.248749,783.599548 208.154709,785.625916 
	C208.067444,787.506348 207.402939,789.006470 205.333649,789.044922 
	C200.348541,789.137756 195.358963,789.131836 190.374054,789.027954 
	C188.218430,788.983032 187.715485,787.330994 187.711700,785.515930 
	C187.688461,774.370850 187.710236,763.225647 187.652863,752.080811 
	C187.639282,749.441345 189.012527,748.605164 191.385269,748.618469 
	C195.710022,748.642761 200.036423,748.665649 204.359558,748.571045 
	C206.749985,748.518799 207.639465,749.717163 207.675735,751.900940 
	C207.713638,754.181885 206.582031,755.257385 204.325790,755.244690 
	C202.995377,755.237122 201.659531,755.361389 200.335144,755.279846 
	C197.216019,755.087708 195.393921,755.846924 195.295151,759.608215 
	C195.197128,763.341003 196.479446,764.656616 200.119858,764.653381 
	C202.192673,764.651550 204.983292,763.504639 206.145050,767.120422 
z"/>
<path fill="#000000" opacity="1.000000" stroke="none" 
	d="
M745.862183,787.752808 
	C739.845337,790.250488 733.858215,788.958374 727.944946,788.940308 
	C726.070618,788.934570 725.708862,787.206726 725.706360,785.608887 
	C725.689026,774.449158 725.699402,763.289307 725.668579,752.129639 
	C725.662476,749.914795 726.543091,748.670959 728.879272,748.676270 
	C734.170532,748.688293 739.461792,748.680054 744.667358,748.680054 
	C745.899414,754.942566 745.683899,755.113342 739.621948,755.315002 
	C736.924927,755.404724 733.332642,754.005615 733.215332,759.115540 
	C733.125916,763.012512 733.986206,765.299805 738.407410,764.672058 
	C739.058472,764.579590 739.737854,764.704529 740.403625,764.695007 
	C742.725769,764.661743 744.241150,765.384399 744.181213,768.108826 
	C744.119019,770.933533 742.336731,771.229492 740.148254,771.291748 
	C736.835449,771.386108 733.082703,770.177063 733.118469,776.114258 
	C733.147217,780.898865 734.320679,782.667847 739.242737,782.179321 
	C742.656799,781.840576 747.306763,781.030151 745.862183,787.752808 
z"/>
<path fill="#000000" opacity="1.000000" stroke="none" 
	d="
M676.094299,789.223389 
	C668.774536,789.110657 668.766174,789.110657 668.759521,782.223938 
	C668.750366,772.754944 668.883301,763.283325 668.692505,753.818115 
	C668.614685,749.956055 669.923279,748.364624 673.864624,748.624573 
	C677.669250,748.875427 681.502441,748.714905 685.322876,748.693359 
	C687.540283,748.680847 688.784424,749.606812 688.729553,751.940796 
	C688.676086,754.213562 687.437073,755.213135 685.245117,755.220520 
	C684.082520,755.224426 682.916870,755.326660 681.758057,755.271118 
	C678.600647,755.119934 676.309448,755.542969 676.291565,759.700928 
	C676.274231,763.739258 677.904846,764.957825 681.685730,764.719482 
	C683.637817,764.596313 686.392273,763.808838 687.045837,766.857300 
	C687.978821,771.209534 684.936768,771.467957 681.912292,771.233643 
	C678.053650,770.934631 676.084839,772.000549 676.272217,776.415771 
	C676.532959,782.560730 676.432800,782.698547 682.864746,782.340027 
	C684.181152,782.266541 685.518311,782.298584 686.828247,782.442627 
	C688.685059,782.646790 689.223267,783.954712 689.227722,785.634521 
	C689.232605,787.502258 688.693420,788.999939 686.540588,789.076172 
	C683.222107,789.193542 679.899109,789.180481 676.094299,789.223389 
z"/>
<path fill="#000000" opacity="1.000000" stroke="none" 
	d="
M467.395203,645.762695 
	C469.027069,652.813477 468.099854,659.629211 468.273285,666.413391 
	C468.447357,673.222595 468.193115,680.042358 468.337006,686.853088 
	C468.420288,690.796387 468.065979,693.494751 462.858459,693.434998 
	C457.906158,693.378296 457.646759,690.794373 457.673523,687.087341 
	C457.759857,675.122192 457.680237,663.156006 457.686310,651.190186 
	C457.689423,645.033997 458.103149,644.635193 464.128510,644.945618 
	C465.107635,644.995972 466.074402,645.286194 467.395203,645.762695 
z"/>
<path fill="#000000" opacity="1.000000" stroke="none" 
	d="
M334.663025,767.750244 
	C332.321960,773.225708 333.137543,778.622803 332.951813,783.916626 
	C332.852692,786.741211 332.718719,789.272400 328.763031,789.226990 
	C324.731079,789.180603 324.527985,786.520325 324.858673,783.776794 
	C326.028046,774.075867 322.378571,765.468994 319.051941,756.766785 
	C318.172668,754.466736 317.064850,752.222107 316.973114,749.736877 
	C323.134583,747.595154 324.417145,748.218384 326.227753,753.928223 
	C326.966614,756.258118 327.804901,758.556458 329.125153,762.406738 
	C330.357330,758.515259 331.136047,756.072937 331.903931,753.627258 
	C333.598083,748.231384 334.667969,747.727661 341.297913,749.685547 
	C339.131470,755.598755 336.974701,761.485535 334.663025,767.750244 
z"/>
<path fill="#000000" opacity="1.000000" stroke="none" 
	d="
M254.552017,748.612305 
	C255.996582,748.606750 256.995605,748.631897 257.992035,748.591919 
	C259.930145,748.514282 261.221863,749.109070 261.249817,751.339355 
	C261.275024,753.347168 260.958923,755.320679 258.492981,755.171204 
	C253.635086,754.876648 253.207581,757.681091 253.286163,761.482788 
	C253.444229,769.129700 253.317780,776.782288 253.322128,784.432556 
	C253.323517,786.868530 253.362854,789.134705 249.859924,789.197571 
	C246.405396,789.259460 245.667114,787.402588 245.682724,784.479248 
	C245.725357,776.496765 245.564209,768.512146 245.689835,760.531616 
	C245.742844,757.164612 245.050751,754.986023 241.076752,755.309998 
	C238.798355,755.495789 237.819794,754.242920 237.782791,751.970215 
	C237.737854,749.211243 239.365097,748.632812 241.632263,748.636902 
	C245.789917,748.644470 249.947617,748.622986 254.552017,748.612305 
z"/>
<path fill="#000000" opacity="1.000000" stroke="none" 
	d="
M782.799377,756.245178 
	C780.317932,754.397766 775.111206,756.958435 775.861938,751.515442 
	C776.560242,746.453064 780.851868,749.012512 783.535095,748.740845 
	C787.486877,748.340698 791.512329,748.680054 795.506409,748.680481 
	C797.624695,748.680725 799.030823,749.400085 799.117859,751.793396 
	C799.200134,754.055054 798.214844,755.388611 795.932373,755.244263 
	C791.520264,754.965332 791.248108,757.660461 791.295288,761.018188 
	C791.405212,768.838745 791.297852,776.662048 791.330505,784.484009 
	C791.341125,787.033508 791.100769,789.073730 787.726379,789.175476 
	C784.170410,789.282715 783.687744,787.293518 783.611267,784.438110 
	C783.362244,775.143616 784.273865,765.826355 782.799377,756.245178 
z"/>
<path fill="#000000" opacity="1.000000" stroke="none" 
	d="
M124.803925,789.016724 
	C120.921768,789.591614 119.546089,788.157837 119.586647,784.651245 
	C119.709854,773.997498 119.695419,763.340698 119.587166,752.686646 
	C119.557510,749.768127 120.591827,748.362976 123.562599,748.314819 
	C126.427780,748.268433 127.301231,749.763977 127.289505,752.372681 
	C127.240883,763.194092 127.273735,774.015747 127.248604,784.837341 
	C127.244759,786.493408 127.326797,788.263245 124.803925,789.016724 
z"/>
<path fill="#000000" opacity="1.000000" stroke="none" 
	d="
M497.740723,668.738892 
	C499.128998,677.094788 498.917480,677.355713 491.256744,677.363098 
	C488.937286,677.365295 486.609039,677.233765 484.300446,677.391907 
	C480.757233,677.634644 478.696442,676.807373 478.768646,672.566528 
	C478.835693,668.626770 480.756348,667.730103 484.073608,667.933716 
	C488.521790,668.206787 493.013031,667.422852 497.740723,668.738892 
z"/>
<path fill="#000000" opacity="1.000000" stroke="none" 
	d="
M578.341431,358.710327 
	C581.534119,356.520325 582.577393,358.921448 583.375977,360.991760 
	C583.940430,362.455231 582.790649,363.720490 581.306580,363.654541 
	C578.427490,363.526581 578.122009,361.333282 578.341431,358.710327 
z"/>
</svg>